<svg width="235" height="48" viewBox="0 0 235 48" fill="none" xmlns="http://www.w3.org/2000/svg">
<path fill-rule="evenodd" clip-rule="evenodd" d="M0 47.4366L17.5117 47.4369C21.165 47.4464 20.84 46.9285 25.2407 43.4177L58.3914 17.3835C59.0687 16.8551 61.1059 15.0489 61.8447 14.8518L61.8641 25.9545C61.8765 27.0799 62.0656 27.3069 61.1827 27.4897C60.6327 27.6036 57.5469 27.4893 56.7458 27.4858C53.7758 27.4728 54.5677 27.2735 50.7309 30.3378C49.8775 31.0188 49.1323 31.6085 48.2719 32.3125C47.6169 32.8485 46.2728 33.7787 45.8846 34.3583C49.5516 34.3583 59.3737 33.9526 62.0659 34.5801C61.562 36.7436 61.8444 44.6713 61.8444 47.4366H74.036V43.1892C72.5885 42.8582 71.2812 42.3389 70.1142 41.6312C67.9221 40.3017 66.4067 38.4384 65.5682 36.0413C64.7294 33.6442 64.6665 30.8948 65.38 27.7927C66.1026 24.6504 67.4689 21.8607 69.4798 19.4233C70.8175 17.8015 72.3365 16.4206 74.0363 15.2803V0.664897C74.0363 0.154242 73.8818 0 73.3714 0H61.8447C60.6717 0 59.989 0.20217 59.2686 0.748688L53.5737 5.25C52.2378 6.33415 51.0601 7.18852 49.723 8.27108L23.0537 29.2593C16.9576 34.0218 9.78432 39.9815 3.83229 44.3962L0.000317684 47.436L0 47.4366Z" fill="black"/>
<path d="M232.239 18.0796L224.307 18.5489C224.323 17.8971 224.17 17.3106 223.849 16.7892C223.53 16.2548 223.046 15.8311 222.396 15.5183C221.762 15.1924 220.95 15.0295 219.96 15.0295C218.636 15.0295 217.456 15.3032 216.421 15.8507C215.389 16.3851 214.769 17.102 214.562 18.0014C214.397 18.7183 214.552 19.3244 215.027 19.8197C215.502 20.315 216.42 20.7126 217.782 21.0124L223.108 22.1073C225.966 22.7069 227.977 23.6715 229.143 25.001C230.309 26.3305 230.643 28.0771 230.145 30.2409C229.693 32.2091 228.7 33.9362 227.168 35.4221C225.65 36.9081 223.765 38.0682 221.513 38.9024C219.278 39.7236 216.823 40.1342 214.148 40.1342C210.069 40.1342 207.009 39.3065 204.969 37.6511C202.945 35.9826 202.055 33.7146 202.3 30.847L210.805 30.4169C210.78 31.6291 211.183 32.5545 212.012 33.1932C212.845 33.8189 214.023 34.1317 215.548 34.1317C217.046 34.1317 218.314 33.8515 219.353 33.291C220.407 32.7175 221.045 31.981 221.265 31.0816C221.425 30.3256 221.24 29.7065 220.709 29.2242C220.181 28.7289 219.278 28.3509 218 28.0902L212.902 27.0539C210.028 26.4674 208.021 25.4507 206.883 24.0038C205.758 22.557 205.453 20.7126 205.968 18.4707C206.412 16.5415 207.329 14.8796 208.719 13.4849C210.123 12.0902 211.889 11.0149 214.015 10.2589C216.155 9.50285 218.543 9.12485 221.177 9.12485C225.069 9.12485 227.948 9.92647 229.813 11.5297C231.691 13.133 232.5 15.3163 232.239 18.0796Z" fill="#198FC0"/>
<path d="M200.516 18.0796L192.584 18.5489C192.6 17.8971 192.447 17.3106 192.126 16.7892C191.807 16.2548 191.323 15.8311 190.673 15.5183C190.039 15.1924 189.227 15.0295 188.237 15.0295C186.913 15.0295 185.733 15.3032 184.698 15.8507C183.666 16.3851 183.046 17.102 182.839 18.0014C182.674 18.7183 182.829 19.3244 183.304 19.8197C183.778 20.315 184.697 20.7126 186.059 21.0124L191.384 22.1073C194.243 22.7069 196.254 23.6715 197.42 25.001C198.585 26.3305 198.919 28.0771 198.422 30.2409C197.969 32.2091 196.977 33.9362 195.445 35.4221C193.926 36.9081 192.041 38.0682 189.79 38.9024C187.555 39.7236 185.1 40.1342 182.425 40.1342C178.346 40.1342 175.286 39.3065 173.246 37.6511C171.222 35.9826 170.332 33.7146 170.577 30.847L179.082 30.4169C179.057 31.6291 179.46 32.5545 180.289 33.1932C181.122 33.8189 182.3 34.1317 183.825 34.1317C185.323 34.1317 186.591 33.8515 187.629 33.291C188.684 32.7175 189.322 31.981 189.542 31.0816C189.702 30.3256 189.517 29.7065 188.986 29.2242C188.458 28.7289 187.555 28.3509 186.277 28.0902L181.179 27.0539C178.305 26.4674 176.298 25.4507 175.16 24.0038C174.034 22.557 173.73 20.7126 174.245 18.4707C174.689 16.5415 175.606 14.8796 176.996 13.4849C178.4 12.0902 180.166 11.0149 182.292 10.2589C184.432 9.50285 186.819 9.12485 189.454 9.12485C193.346 9.12485 196.225 9.92647 198.09 11.5297C199.968 13.133 200.777 15.3163 200.516 18.0796Z" fill="#198FC0"/>
<path d="M150.085 40.1342C146.915 40.1342 144.331 39.5085 142.331 38.2572C140.348 36.9928 139.007 35.2071 138.307 32.8999C137.61 30.5798 137.625 27.836 138.354 24.6686C139.064 21.5794 140.302 18.8682 142.069 16.535C143.836 14.2018 145.986 12.3835 148.52 11.08C151.066 9.77658 153.851 9.12485 156.874 9.12485C158.907 9.12485 160.726 9.44419 162.331 10.0829C163.952 10.7085 165.273 11.6536 166.293 12.9179C167.327 14.1823 167.991 15.7725 168.286 17.6886C168.584 19.5916 168.439 21.8205 167.852 24.3753L167.326 26.6629H141.306L142.492 21.5012H160.468C160.744 20.302 160.72 19.2397 160.398 18.3142C160.076 17.3888 159.5 16.6654 158.67 16.144C157.857 15.6096 156.828 15.3423 155.584 15.3423C154.287 15.3423 153.069 15.6356 151.932 16.2222C150.81 16.7957 149.856 17.5713 149.069 18.5489C148.286 19.5134 147.751 20.5888 147.465 21.7749L146.337 26.6824C145.995 28.1684 145.981 29.4523 146.294 30.5342C146.62 31.616 147.237 32.4503 148.146 33.0368C149.054 33.6234 150.224 33.9166 151.655 33.9166C152.604 33.9166 153.504 33.7863 154.353 33.5256C155.202 33.2649 155.967 32.8739 156.649 32.3525C157.33 31.8311 157.905 31.1924 158.373 30.4364L166.161 30.9448C165.334 32.7957 164.14 34.412 162.578 35.7936C161.033 37.1623 159.196 38.2311 157.066 39.0001C154.953 39.7561 152.626 40.1342 150.085 40.1342Z" fill="#198FC0"/>
<path d="M116.807 40.1342C113.651 40.1342 111.085 39.4824 109.111 38.179C107.154 36.8625 105.835 35.0376 105.154 32.7044C104.487 30.3712 104.502 27.6861 105.2 24.6491C105.908 21.5729 107.137 18.8747 108.887 16.5546C110.654 14.2214 112.818 12.403 115.378 11.0996C117.941 9.78309 120.78 9.12485 123.897 9.12485C126.585 9.12485 128.829 9.60061 130.63 10.5521C132.431 11.5037 133.722 12.8397 134.503 14.5603C135.285 16.2808 135.469 18.3012 135.056 20.6214H126.991C127.108 19.1224 126.784 17.9167 126.017 17.0043C125.267 16.0788 124.109 15.6161 122.545 15.6161C121.22 15.6161 119.983 15.968 118.831 16.6719C117.696 17.3627 116.701 18.3729 115.847 19.7024C114.993 21.0319 114.349 22.6417 113.914 24.5317C113.474 26.4478 113.367 28.0771 113.593 29.4197C113.833 30.7623 114.366 31.7855 115.194 32.4894C116.022 33.1932 117.098 33.5452 118.422 33.5452C119.399 33.5452 120.32 33.3496 121.185 32.9586C122.064 32.5676 122.843 32.0006 123.522 31.2576C124.218 30.5016 124.767 29.5957 125.17 28.5399H133.235C132.574 30.834 131.468 32.8543 129.916 34.601C128.38 36.3346 126.497 37.6902 124.266 38.6678C122.035 39.6454 119.549 40.1342 116.807 40.1342Z" fill="#198FC0"/>
<path d="M83.6494 40.1342C80.4929 40.1342 77.9277 39.4824 75.9537 38.179C73.9961 36.8625 72.6769 35.0376 71.9963 32.7044C71.329 30.3712 71.3445 27.6861 72.0428 24.6491C72.7501 21.5729 73.979 18.8747 75.7296 16.5546C77.4965 14.2214 79.66 12.403 82.22 11.0996C84.783 9.78309 87.6227 9.12485 90.739 9.12485C93.4273 9.12485 95.6718 9.60061 97.4726 10.5521C99.2734 11.5037 100.565 12.8397 101.346 14.5603C102.127 16.2808 102.311 18.3012 101.898 20.6214H93.8334C93.9507 19.1224 93.626 17.9167 92.8595 17.0043C92.1093 16.0788 90.9518 15.6161 89.3869 15.6161C88.0628 15.6161 86.825 15.968 85.6734 16.6719C84.5382 17.3627 83.5436 18.3729 82.6896 19.7024C81.8355 21.0319 81.1912 22.6417 80.7567 24.5317C80.3161 26.4478 80.209 28.0771 80.4353 29.4197C80.675 30.7623 81.2088 31.7855 82.0366 32.4894C82.8645 33.1932 83.9405 33.5452 85.2646 33.5452C86.241 33.5452 87.162 33.3496 88.0276 32.9586C88.9066 32.5676 89.6857 32.0006 90.3647 31.2576C91.0602 30.5016 91.6095 29.5957 92.0128 28.5399H100.078C99.4165 30.834 98.31 32.8543 96.7582 34.601C95.2227 36.3346 93.3395 37.6902 91.1085 38.6678C88.8776 39.6454 86.3912 40.1342 83.6494 40.1342Z" fill="#198FC0"/>
</svg>
