<svg width="158" height="32" viewBox="0 0 158 32" fill="none" xmlns="http://www.w3.org/2000/svg">
<path fill-rule="evenodd" clip-rule="evenodd" d="M0 31.8935L11.7738 31.8937C14.2301 31.9002 14.0116 31.5519 16.9704 29.1915L39.2589 11.6876C39.7142 11.3324 41.084 10.118 41.5807 9.98548L41.5937 17.4503C41.602 18.2069 41.7292 18.3595 41.1356 18.4824C40.7658 18.559 38.6911 18.4822 38.1525 18.4798C36.1557 18.4711 36.688 18.3371 34.1085 20.3973C33.5347 20.8552 33.0336 21.2517 32.4552 21.725C32.0147 22.0854 31.1111 22.7108 30.8501 23.1004C33.3155 23.1004 39.9193 22.8277 41.7294 23.2496C41.3906 24.7042 41.5805 30.0343 41.5805 31.8935H49.7774V29.0378C48.8042 28.8153 47.9252 28.4662 47.1406 27.9903C45.6668 27.0965 44.6479 25.8437 44.0841 24.232C43.5201 22.6203 43.4779 20.7718 43.9576 18.6862C44.4435 16.5735 45.3621 14.6978 46.7141 13.0591C47.6135 11.9687 48.6347 11.0402 49.7776 10.2735V0.447037C49.7776 0.103703 49.6737 0 49.3306 0H41.5807C40.792 0 40.3331 0.135927 39.8487 0.503373L36.0197 3.52979C35.1216 4.25871 34.3297 4.83313 33.4307 5.56098L15.4999 19.6722C11.4013 22.8743 6.57839 26.8812 2.5766 29.8493L0.000213592 31.8931L0 31.8935Z" fill="white"/>
<path d="M156.144 12.1557L150.811 12.4712C150.821 12.033 150.719 11.6386 150.503 11.2881C150.289 10.9287 149.963 10.6439 149.526 10.4336C149.099 10.2145 148.554 10.105 147.888 10.105C146.998 10.105 146.205 10.289 145.509 10.6571C144.815 11.0164 144.398 11.4984 144.259 12.1031C144.148 12.5851 144.252 12.9926 144.571 13.3256C144.89 13.6586 145.508 13.9259 146.424 14.1275L150.004 14.8636C151.926 15.2668 153.278 15.9153 154.062 16.8092C154.846 17.7031 155.07 18.8774 154.736 20.3322C154.432 21.6555 153.764 22.8167 152.734 23.8157C151.713 24.8148 150.446 25.5948 148.932 26.1556C147.429 26.7078 145.779 26.9838 143.98 26.9838C141.238 26.9838 139.18 26.4273 137.809 25.3143C136.448 24.1926 135.85 22.6677 136.014 20.7397L141.733 20.4505C141.716 21.2655 141.987 21.8877 142.544 22.3172C143.104 22.7378 143.897 22.9481 144.922 22.9481C145.929 22.9481 146.781 22.7597 147.48 22.3829C148.189 21.9973 148.617 21.5021 148.765 20.8974C148.873 20.3891 148.749 19.9729 148.392 19.6486C148.036 19.3156 147.429 19.0614 146.571 18.8862L143.143 18.1895C141.21 17.7951 139.861 17.1115 139.096 16.1388C138.339 15.166 138.134 13.9259 138.481 12.4186C138.779 11.1215 139.396 10.0042 140.331 9.06646C141.275 8.12875 142.461 7.40574 143.891 6.89745C145.33 6.38916 146.935 6.13501 148.706 6.13501C151.323 6.13501 153.259 6.67398 154.512 7.75191C155.775 8.82984 156.319 10.2978 156.144 12.1557Z" fill="white"/>
<path d="M134.815 12.1557L129.482 12.4712C129.493 12.033 129.39 11.6386 129.174 11.2881C128.96 10.9287 128.634 10.6439 128.197 10.4336C127.771 10.2145 127.225 10.105 126.559 10.105C125.669 10.105 124.876 10.289 124.18 10.6571C123.486 11.0164 123.069 11.4984 122.93 12.1031C122.819 12.5851 122.923 12.9926 123.242 13.3256C123.562 13.6586 124.179 13.9259 125.095 14.1275L128.675 14.8636C130.597 15.2668 131.95 15.9153 132.733 16.8092C133.517 17.7031 133.741 18.8774 133.407 20.3322C133.103 21.6555 132.436 22.8167 131.406 23.8157C130.385 24.8148 129.117 25.5948 127.603 26.1556C126.101 26.7078 124.45 26.9838 122.651 26.9838C119.909 26.9838 117.852 26.4273 116.48 25.3143C115.119 24.1926 114.521 22.6677 114.686 20.7397L120.404 20.4505C120.387 21.2655 120.658 21.8877 121.216 22.3172C121.775 22.7378 122.568 22.9481 123.593 22.9481C124.6 22.9481 125.453 22.7597 126.151 22.3829C126.86 21.9973 127.288 21.5021 127.436 20.8974C127.544 20.3891 127.42 19.9729 127.063 19.6486C126.708 19.3156 126.101 19.0614 125.242 18.8862L121.814 18.1895C119.881 17.7951 118.532 17.1115 117.767 16.1388C117.01 15.166 116.805 13.9259 117.152 12.4186C117.45 11.1215 118.067 10.0042 119.002 9.06646C119.946 8.12875 121.133 7.40574 122.562 6.89745C124.001 6.38916 125.606 6.13501 127.378 6.13501C129.994 6.13501 131.93 6.67398 133.184 7.75191C134.446 8.82984 134.99 10.2978 134.815 12.1557Z" fill="white"/>
<path d="M100.908 26.9838C98.7769 26.9838 97.0392 26.5632 95.695 25.7218C94.3617 24.8718 93.4598 23.6711 92.9891 22.12C92.5205 20.56 92.531 18.7153 93.0206 16.5857C93.4982 14.5087 94.3309 12.6859 95.5189 11.1172C96.7069 9.54846 98.1525 8.32593 99.8557 7.44956C101.568 6.57319 103.44 6.13501 105.472 6.13501C106.839 6.13501 108.062 6.34972 109.142 6.77914C110.232 7.1998 111.12 7.83516 111.806 8.68524C112.5 9.53532 112.947 10.6045 113.145 11.8928C113.346 13.1722 113.249 14.6708 112.854 16.3885L112.5 17.9265H95.0054L95.8033 14.4561H107.889C108.074 13.6499 108.059 12.9356 107.842 12.3134C107.626 11.6912 107.238 11.2048 106.68 10.8543C106.134 10.4949 105.442 10.3153 104.606 10.3153C103.733 10.3153 102.915 10.5125 102.15 10.9068C101.396 11.2924 100.754 11.8139 100.225 12.4712C99.6985 13.1197 99.339 13.8427 99.1466 14.6402L98.388 17.9397C98.1583 18.9388 98.1486 19.802 98.3591 20.5294C98.5785 21.2567 98.9936 21.8176 99.6043 22.212C100.215 22.6064 101.001 22.8035 101.964 22.8035C102.602 22.8035 103.207 22.7159 103.778 22.5406C104.348 22.3654 104.863 22.1024 105.321 21.7519C105.78 21.4013 106.166 20.9719 106.481 20.4636L111.717 20.8054C111.161 22.0499 110.358 23.1366 109.308 24.0655C108.269 24.9857 107.034 25.7043 105.602 26.2214C104.181 26.7297 102.617 26.9838 100.908 26.9838Z" fill="white"/>
<path d="M78.5341 26.9838C76.4119 26.9838 74.6872 26.5456 73.36 25.6693C72.0438 24.7841 71.1569 23.5572 70.6993 21.9885C70.2506 20.4198 70.2611 18.6145 70.7305 16.5726C71.2061 14.5043 72.0323 12.6902 73.2093 11.1303C74.3973 9.56161 75.8519 8.33907 77.5731 7.46271C79.2963 6.57757 81.2055 6.13501 83.3007 6.13501C85.1082 6.13501 86.6173 6.45488 87.828 7.09463C89.0388 7.73438 89.9068 8.63266 90.4322 9.78946C90.9575 10.9463 91.0813 12.3046 90.8036 13.8646H85.3812C85.4601 12.8568 85.2418 12.0461 84.7264 11.4327C84.222 10.8104 83.4438 10.4993 82.3917 10.4993C81.5014 10.4993 80.6692 10.7359 79.895 11.2092C79.1317 11.6737 78.463 12.3528 77.8888 13.2467C77.3146 14.1406 76.8814 15.223 76.5892 16.4937C76.293 17.7819 76.221 18.8774 76.3731 19.7801C76.5343 20.6827 76.8932 21.3707 77.4498 21.8439C78.0064 22.3172 78.7299 22.5538 79.6201 22.5538C80.2765 22.5538 80.8958 22.4223 81.4778 22.1594C82.0688 21.8965 82.5925 21.5153 83.0491 21.0157C83.5167 20.5075 83.886 19.8984 84.1571 19.1885H89.5795C89.135 20.7309 88.391 22.0893 87.3477 23.2636C86.3153 24.4292 85.0492 25.3406 83.5492 25.9979C82.0492 26.6552 80.3775 26.9838 78.5341 26.9838Z" fill="white"/>
<path d="M56.2408 26.9838C54.1186 26.9838 52.3939 26.5456 51.0667 25.6693C49.7505 24.7841 48.8636 23.5572 48.4059 21.9885C47.9573 20.4198 47.9677 18.6145 48.4372 16.5726C48.9127 14.5043 49.739 12.6902 50.916 11.1303C52.1039 9.56161 53.5585 8.33907 55.2797 7.46271C57.0029 6.57757 58.9122 6.13501 61.0074 6.13501C62.8148 6.13501 64.3239 6.45488 65.5347 7.09463C66.7454 7.73438 67.6135 8.63266 68.1389 9.78946C68.6642 10.9463 68.788 12.3046 68.5103 13.8646H63.0879C63.1667 12.8568 62.9485 12.0461 62.4331 11.4327C61.9287 10.8104 61.1504 10.4993 60.0983 10.4993C59.2081 10.4993 58.3759 10.7359 57.6016 11.2092C56.8384 11.6737 56.1697 12.3528 55.5954 13.2467C55.0212 14.1406 54.588 15.223 54.2959 16.4937C53.9997 17.7819 53.9277 18.8774 54.0798 19.7801C54.241 20.6827 54.5998 21.3707 55.1565 21.8439C55.7131 22.3172 56.4365 22.5538 57.3268 22.5538C57.9832 22.5538 58.6024 22.4223 59.1844 22.1594C59.7754 21.8965 60.2992 21.5153 60.7558 21.0157C61.2233 20.5075 61.5927 19.8984 61.8638 19.1885H67.2862C66.8416 20.7309 66.0977 22.0893 65.0543 23.2636C64.022 24.4292 62.7558 25.3406 61.2559 25.9979C59.7559 26.6552 58.0842 26.9838 56.2408 26.9838Z" fill="white"/>
</svg>
